<?xml version="1.0" encoding="utf-8"?>
<!-- Generator: Adobe Illustrator 26.2.1, SVG Export Plug-In . SVG Version: 6.00 Build 0)  -->
<svg version="1.1" id="Layer_1" xmlns="http://www.w3.org/2000/svg" xmlns:xlink="http://www.w3.org/1999/xlink" x="0px" y="0px"
	 viewBox="0 0 1920 1080" style="enable-background:new 0 0 1920 1080;" xml:space="preserve">
<path d="M1823.3,1649.9c34.1-8.6,64.2-1.7,89.7,21.6c21.8,19.9,32.6,45.2,32.5,74.7c0,32-12.2,58.8-37.1,79.1
	c-24.9,20.4-53.6,25.5-85.2,17.7c0,2.4,0,4.4,0,6.3c0,44,0.1,88-0.1,132c-0.1,19.7-8.3,35-26.5,43.3c-6,2.7-13.2,3.6-19.9,3.7
	c-26.3,0.4-52.7,0.2-79,0.2c-47.3,0-94.7-0.6-142,0.2c-29.8,0.5-48.2-23.3-47.8-47.6c0.6-36.7,0.2-73.3,0.2-110c0-2,0-4,0-6.2
	c-0.9-0.4-1.6-0.8-2.3-1c-9.1-2.8-15.1-8.7-18.6-17.5c-3-7.6-10-10.5-17.4-7.6c-12.1,4.9-22.2,2.8-31.4-6.6c-1.5-1.5-3-3.1-4.5-4.7
	c-8.7-9.3-10.8-19.9-6.2-31.8c3.2-8.3,0.4-15.1-7.6-18.8c-10.9-5-16.6-13.5-16.9-25.5c-0.1-3.5-0.2-7,0-10.5
	c0.6-11.7,6.1-20.2,16.9-25c8-3.6,10.9-10.5,7.7-18.8c-4.7-12.1-2.4-22.8,6.5-32.2c1.8-1.9,3.6-3.9,5.6-5.7
	c8.5-7.9,18.2-10,29.1-5.6c8.5,3.4,15,0.8,18.5-7.7c3.1-7.7,8.2-13.5,16.1-16c4.1-1.3,4.7-3.4,4.7-7.2c-0.1-37.3-0.1-74.7,0-112
	c0.1-20.7,11.3-37.6,29.4-43.8c4.9-1.7,10.4-2.5,15.7-2.6c74.8-0.2,149.6-0.2,224.5-0.1c26.6,0,45.3,19.7,45.4,47.3
	c0.1,44,0,88,0,132C1823.3,1645.5,1823.3,1647.4,1823.3,1649.9z M1804.9,1900.8c0.3-0.6,0.6-0.9,0.6-1.1c0.1-20.7,0.1-41.3,0.1-62
	c0-1.1-0.8-2.6-1.7-3.2c-4.9-3.4-9.9-6.5-15.6-10.3c0,7.7,0,14.7,0,21.9c-23.6,0-46.5,0-69.6,0c0-18.1,0-36,0-54.5
	c15.1,0,29.8,0,44.8,0c-1.5-3.7-2.8-6.8-3.9-9.9c-3-8.2-3-8.2-12-8.2c-9.6,0-19.2,0-29,0c0-18.4,0-36.2,0-54.5c2.1,0,3.8,0,5.6,0
	c9.7,0,19.3,0.1,29-0.1c1.4,0,3.6-0.7,4.1-1.7c2.2-5.2,3.9-10.5,6.1-16.5c-15.2,0-30,0-44.8,0c0-18.4,0-36.2,0-54.1
	c23.3,0,46.3,0,69.9,0c0,7.4,0,14.2,0,21.7c4.7-3.1,8.7-6.2,13-8.5c3.2-1.7,4.3-3.8,4.3-7.4c-0.2-30.7-0.1-61.3-0.1-92
	c0-1.6-0.2-3.2-0.3-4.9c-93.3,0-186.2,0-279.4,0c0,115.2,0,230.1,0,345.2C1619.2,1900.8,1712.1,1900.8,1804.9,1900.8z
	 M1525.6,1919.5c0,2.1,0,3.8,0,5.4c0,18.5,0,37,0,55.5c0,18.9,10.9,29.8,29.7,29.8c73.6,0,147.3,0,220.9,0
	c18.4,0,29.3-10.8,29.3-29.1c0.1-19,0-38,0-57c0-1.5-0.2-2.9-0.3-4.6C1712.1,1919.5,1619.3,1919.5,1525.6,1919.5z M1787.9,1794.3
	c0.6,1.3,1.1,4.4,2.9,6.5c21.1,23.4,47.2,32.6,77.9,24.8c41.3-10.5,66.6-52.8,57.5-96.3c-6.5-31-25.1-52.6-55.7-61.6
	c-29.6-8.7-55.6-0.5-77.1,21.4c-2.8,2.9-4.5,6.9-7,10.9c-1.4,1.5-3.9,3.4-5.2,5.8c-14.2,27-14.1,54.2,0.1,81.2
	C1782.6,1789.5,1785.1,1791.3,1787.9,1794.3z M1805.6,1536.8c0-8.5,0-16.6,0-24.7c-0.1-18.9-10.8-29.7-29.8-29.7
	c-73.4,0-146.9,0-220.3,0c-1.5,0-3,0-4.5,0c-12,0.8-22.8,9-24.2,20.8c-1.3,10.9-0.3,22.1-0.3,33.5
	C1619,1536.8,1711.9,1536.8,1805.6,1536.8z M1506.8,1844.6c0.5-0.2,1-0.4,1.5-0.6c0-10-0.2-19.9,0.1-29.9c0.1-3.5-0.9-4.8-4.4-5.7
	c-28.6-6.8-48.3-32.4-48.3-62.1c0-29.9,20-55.4,48.9-62.1c3.3-0.8,3.8-2.3,3.8-5.1c-0.1-9.2,0-18.3-0.1-27.5c0-1-0.3-2.1-0.7-4.4
	c-1.8,2.6-3.4,4-3.8,5.8c-4,15.7-27.3,25.8-41.2,17.4c-3.7-2.2-7.4-1-10.5,1.9c-1.8,1.7-3.4,3.6-5.2,5.4c-3.8,3.7-4.8,8-2.4,12.8
	c7.2,14.7-1.8,37.3-17.1,42.1c-4.5,1.4-6.4,5.1-6.6,9.6c-0.1,2.7-0.1,5.3,0,8c0.2,4.8,2.1,8.5,6.8,10c15.5,4.9,23.9,27.5,17,41.7
	c-2.4,4.9-1.5,9.4,2.5,13.2c1.4,1.4,2.8,2.8,4.2,4.3c3.5,3.7,7.6,5,12.2,2.5c13.7-7.6,35.3,1.5,40.2,17
	C1504.1,1841,1505.6,1842.7,1506.8,1844.6z M1507.8,1790.4c0-29.5,0-58.7,0-88c-18.7,2.2-34.4,22.2-34.6,43.4
	C1473.1,1767.6,1488.6,1787.8,1507.8,1790.4z M1735.8,1664.6c0,6.2,0,11.8,0,17.7c11.6,0,23,0,34.4,0c0-6,0-11.8,0-17.7
	C1758.7,1664.6,1747.5,1664.6,1735.8,1664.6z M1770.3,1810.4c-11.7,0-22.9,0-34.3,0c0,6,0,11.7,0,17.5c11.6,0,22.8,0,34.3,0
	C1770.3,1822,1770.3,1816.4,1770.3,1810.4z M1753,1755.4c0-6.5,0-12.2,0-17.8c-5.9,0-11.5,0-17.4,0c0,5.2-0.2,10,0.1,14.7
	c0.1,1.1,1.7,2.9,2.7,3C1743.2,1755.6,1748,1755.4,1753,1755.4z"/>
<path d="M1543.5,1627.7c0-18.2,0-35.9,0-53.9c23.3,0,46.3,0,69.5,0c0,18.1,0,35.8,0,53.9C1589.8,1627.7,1566.9,1627.7,1543.5,1627.7
	z M1595.4,1591.9c-11.8,0-23,0-34.5,0c0,6.1,0,11.8,0,17.7c11.7,0,23,0,34.5,0C1595.4,1603.5,1595.4,1597.9,1595.4,1591.9z"/>
<path d="M1700.2,1627.8c-23.1,0-45.9,0-69.2,0c0-17.8,0-35.6,0-53.8c22.8,0,45.8,0,69.2,0
	C1700.2,1591.8,1700.2,1609.6,1700.2,1627.8z M1648.5,1609.6c11.8,0,23,0,34.5,0c0-6,0-11.7,0-17.7c-11.7,0-23,0-34.5,0
	C1648.5,1598,1648.5,1603.6,1648.5,1609.6z"/>
<path d="M1718.5,1627.7c0-18.1,0-35.8,0-53.9c23.3,0,46.3,0,69.5,0c0,18.1,0,35.8,0,53.9C1764.8,1627.7,1742,1627.7,1718.5,1627.7z
	 M1735.9,1591.9c0,6.1,0,11.8,0,17.6c11.7,0,23,0,34.2,0c0-6.2,0-11.9,0-17.6C1758.5,1591.9,1747.3,1591.9,1735.9,1591.9z"/>
<path d="M1543.5,1646.6c23.3,0,46.2,0,69.4,0c0,18,0,35.7,0,53.9c-23.1,0-46.1,0-69.4,0C1543.5,1682.5,1543.5,1664.8,1543.5,1646.6z
	 M1560.8,1682.5c11.8,0,23,0,34.3,0c0-6.1,0-12,0-17.7c-11.7,0-22.9,0-34.3,0C1560.8,1670.7,1560.8,1676.3,1560.8,1682.5z"/>
<path d="M1700.3,1646.6c0,18.1,0,35.8,0,53.9c-23.2,0-46.2,0-69.5,0c0-18.1,0-35.8,0-53.9C1654,1646.6,1676.9,1646.6,1700.3,1646.6z
	 M1682.9,1682.4c0-6.1,0-11.8,0-17.6c-11.7,0-23,0-34.2,0c0,6.1,0,11.8,0,17.6C1660.3,1682.4,1671.5,1682.4,1682.9,1682.4z"/>
<path d="M1543.5,1773.2c0-18,0-35.6,0-53.7c23.1,0,46.1,0,69.5,0c0,17.9,0,35.6,0,53.7C1589.8,1773.2,1566.9,1773.2,1543.5,1773.2z
	 M1595.3,1737.6c-11.8,0-23.1,0-34.5,0c-0.1,1.8-0.2,3.3-0.2,4.8c-0.1,13.1-0.1,13.1,12.8,13.1c7.2,0,14.5,0,21.9,0
	C1595.3,1749.1,1595.3,1743.5,1595.3,1737.6z"/>
<path d="M1631,1719.4c23.1,0,46.1,0,69.3,0c0,18,0,35.7,0,53.8c-23,0-45.9,0-69.3,0C1631,1755.4,1631,1737.7,1631,1719.4z
	 M1648.5,1755.4c11,0,21.5,0,32-0.1c0.9,0,2.6-1.3,2.7-2c0.2-5.2,0.1-10.5,0.1-15.7c-12,0-23.3,0-34.7,0
	C1648.5,1743.5,1648.5,1749.1,1648.5,1755.4z"/>
<path d="M1612.9,1846.1c-23.6,0-46.3,0-69.3,0c0-18,0-35.7,0-53.8c23.1,0,46.1,0,69.3,0C1612.9,1810.3,1612.9,1828.2,1612.9,1846.1z
	 M1595.3,1810.5c-11.6,0-23,0-34.4,0c0,6,0,11.6,0,17.3c11.7,0,23,0,34.4,0C1595.3,1821.8,1595.3,1816.2,1595.3,1810.5z"/>
<path d="M1543.6,1865c5.7,0,10.9,0,16.6,0c0,5.8,0,11.5,0,17.5c-5.5,0-10.9,0-16.6,0C1543.6,1876.7,1543.6,1871.1,1543.6,1865z"/>
<path d="M1578.4,1882.5c0-6,0-11.5,0-17.3c5.6,0,10.9,0,16.8,0c0,5.6,0,11.3,0,17.3C1589.7,1882.5,1584.3,1882.5,1578.4,1882.5z"/>
<path d="M1630.3,1865.1c0,6,0,11.6,0,17.4c-5.7,0-11.1,0-16.8,0c0-5.9,0-11.5,0-17.4C1619.1,1865.1,1624.5,1865.1,1630.3,1865.1z"/>
<path d="M1648.6,1865c5.6,0,11,0,16.7,0c0,5.8,0,11.4,0,17.4c-5.5,0-10.9,0-16.7,0C1648.6,1876.7,1648.6,1871,1648.6,1865z"/>
<path d="M1665.5,1992.1c-8.5,0-17,0.1-25.5,0c-15.3-0.2-26.7-11.9-26.7-27.1c-0.1-15.3,11-27.1,26.4-27.4c17.3-0.3,34.6-0.3,51.9,0
	c15.2,0.2,26.7,12.3,26.6,27.3c-0.1,15.3-11.8,27-27.3,27.2C1682.4,1992.2,1673.9,1992.1,1665.5,1992.1z M1665.3,1973.9
	c8.2,0,16.3,0,24.5,0c6.9-0.1,10.7-3.3,10.7-9.1c0-5.8-3.8-9.2-10.6-9.2c-16.1-0.1-32.3,0-48.4,0c-6.7,0-10.8,3.6-10.8,9.1
	c0,5.6,4.1,9.2,10.7,9.2C1649.4,1974,1657.4,1973.9,1665.3,1973.9z"/>
<path d="M1840.5,1809.6c0-6.1,0-11.7,0-17.2c-17.6-4.4-26.4-13.8-25.7-27.8c4.9,0,9.9-0.2,14.8,0.1c1,0.1,2.3,1.6,2.7,2.7
	c1.7,4,4.6,6,8.9,6c5.5,0,11,0.1,16.5,0c5.5-0.2,8.9-3.6,9.1-8.7c0.2-5.2-3.3-9.1-9-9.3c-5.2-0.2-10.3-0.1-15.5-0.1
	c-15.1-0.1-26.4-10.2-27.8-24.6c-1.4-14.8,8.2-27.1,23.4-29.8c0.6-0.1,1.3-0.3,2.6-0.6c0-5.7,0-11.4,0-17.4c6.1,0,11.5,0,17.6,0
	c0,5.8,0,11.6,0,17.1c18.1,5,26.6,14.2,25.8,28c-4.9,0-9.9,0.1-14.8-0.1c-1-0.1-2.2-1.6-2.7-2.8c-1.7-4-4.4-6.1-8.8-6.1
	c-5.5,0-11-0.1-16.5,0c-5.6,0.1-9.1,3.8-9.1,9.1c0.1,5.3,3.6,8.8,9.3,9c5,0.1,10,0,15,0c15.4,0.1,26.8,10.2,28,24.9
	c1.2,14.5-8.1,26.5-22.7,29.4c-1,0.2-1.9,0.4-3.3,0.7c0,5.6,0,11.2,0,17.3C1852.4,1809.6,1846.8,1809.6,1840.5,1809.6z"/>
<path d="M1613.5,1518.4c0-5.8,0-11.4,0-17.3c34.8,0,69.4,0,104.3,0c0,5.7,0,11.2,0,17.3C1683.3,1518.4,1648.7,1518.4,1613.5,1518.4z
	"/>
<path d="M1560.5,1509.5c0.1,5.1-3.6,9.1-8.4,9.2c-4.8,0.1-8.7-3.7-8.8-8.8c-0.1-5.1,3.5-9,8.4-9.1
	C1556.6,1500.7,1560.4,1504.5,1560.5,1509.5z"/>
</svg>
