<?xml version="1.0" encoding="utf-8"?>
<!-- Generator: Adobe Illustrator 26.2.1, SVG Export Plug-In . SVG Version: 6.00 Build 0)  -->
<svg version="1.1" id="Layer_1" xmlns="http://www.w3.org/2000/svg" xmlns:xlink="http://www.w3.org/1999/xlink" x="0px" y="0px"
	 viewBox="0 0 451 700" style="enable-background:new 0 0 451 700;" xml:space="preserve">
<path d="M-372.01,97.58c73.5,0,146.99,0,220.49,0c16.94,0,24.68,7.77,24.68,24.78c0,93.16,0,186.32,0,279.49
	c0,16.58-7.9,24.47-24.52,24.47c-146.83,0-293.65,0-440.48,0c-16.86,0-24.73-7.9-24.74-24.82c-0.01-93-0.01-185.99,0-278.99
	c0-17.24,7.75-24.93,25.08-24.93C-518.33,97.58-445.17,97.58-372.01,97.58z M-582.78,130.68c0,80.17,0,159.87,0,239.71
	c141.02,0,281.68,0,422.3,0c0-80.15,0-159.86,0-239.71C-301.3,130.68-441.74,130.68-582.78,130.68z M-386.08,394.82
	c-0.04,8.07,6.53,14.66,14.53,14.55c7.74-0.1,14.32-6.64,14.4-14.32c0.09-7.89-6.66-14.56-14.67-14.5
	C-379.7,380.63-386.04,386.97-386.08,394.82z"/>
<path d="M-283.24,89.09c0-11.45-0.04-22.58,0.03-33.71c0.02-3.42,2.35-4.55,5.35-4.59c5-0.07,10-0.14,14.99,0.01
	c2.68,0.08,3.77-0.95,5.14-3.4c3.98-7.11,2.48-11.83-3.64-17.23c-10.48-9.24-10.3-8.08-0.19-18.03c6.89-6.78,13.83-13.5,20.57-20.43
	c3.23-3.32,6.09-3.72,9.25-0.15c0.77,0.87,1.65,1.65,2.48,2.47c9.17,9.09,9.2,9.15,20.59,3.26c1.11-0.57,2.06-2.47,2.15-3.81
	c0.28-4.15,0.23-8.33,0.08-12.49c-0.16-4.53,2.02-6.28,6.36-6.26c12.16,0.07,24.33,0.06,36.49,0.01c4.19-0.02,6.08,1.86,5.92,6.1
	c-0.16,4.16-0.29,8.36,0.11,12.48c0.15,1.5,1.59,3.48,2.97,4.15c3.8,1.84,8.21,4.8,11.77,4.12c3.41-0.66,6.08-5.3,9.04-8.23
	c6.04-5.97,6.6-5.97,12.77,0.14c7.58,7.5,15.18,14.98,22.74,22.5c4.71,4.68,4.68,5.69-0.14,10.51c-1.18,1.18-2.22,2.58-3.58,3.47
	c-7.24,4.72-8.36,10.73-3.74,17.79c0.89,1.36,2.73,2.82,4.22,2.93c4.97,0.37,9.99,0.23,14.98,0.12c4.16-0.09,6.14,1.68,6.11,5.94
	c-0.08,12.16-0.07,24.33-0.01,36.49c0.02,3.96-1.77,5.85-5.72,5.82c-5-0.04-10.02,0.31-14.99-0.09c-4.37-0.36-6.89,1.06-8.06,5.31
	c-0.52,1.89-1.63,3.61-2.66,5.79c4.76,4.69,9.4,9.46,14.25,13.99c3.42,3.19,3.53,5.93,0.08,9.21c-6.71,6.39-13.22,12.99-20.99,19.04
	c0-4.6,0-9.2,0-13.8c0-6.16,0.03-12.33-0.01-18.49c-0.11-15.76-8.2-26.1-23.38-29.96c-0.8-0.2-1.59-0.45-2.68-0.76
	c5.61-20.21,1-37.18-17.53-48.14c-14.66-8.66-29.98-7.66-43.64,2.58c-15.23,11.42-18.88,27.03-13.49,45.36
	C-240.4,89.09-261.41,89.09-283.24,89.09z"/>
<path d="M-420.62,434.72c33.03,0,65.14,0,97.87,0c0,11.48,0,22.71,0,34.6c9.2,0,17.81-0.01,26.41,0c7.28,0.01,7.78,0.48,7.79,7.54
	c0.02,8.83,0.04,17.67-0.01,26.5c-0.03,5.78-1.02,6.87-6.61,6.87c-51,0.03-101.99,0.03-152.99,0c-5.55,0-6.72-1.26-6.74-6.77
	c-0.03-9.33,0.11-18.67-0.06-28c-0.08-4.52,1.79-6.3,6.27-6.2c7.66,0.18,15.34-0.14,22.99,0.13c3.87,0.14,5.3-0.97,5.16-5
	c-0.28-7.99-0.08-16-0.08-23.99C-420.62,438.6-420.62,436.81-420.62,434.72z"/>
<path d="M-503.11,89.46c-0.11-4.51,2.1-5.68,5.34-5.7c5.16-0.03,10.35,0.21,15.48-0.16c1.47-0.11,3.22-1.64,4.17-2.99
	c5.03-7.18,2.53-12.38-3.7-17.87c-10.19-8.97-9.47-8.03-0.07-17.34c7.1-7.03,14.27-14,21.26-21.15c2.95-3.02,5.5-3.25,8.44-0.15
	c2.64,2.78,5.44,5.39,8.18,8.08c0.71,0.7,1.62,2.1,2.13,1.97c4.47-1.13,8.93-2.35,13.23-3.99c1.09-0.42,2.15-2.39,2.23-3.71
	c0.28-4.31,0.19-8.66,0.1-12.99c-0.08-4.02,1.9-5.79,5.78-5.78c12.5,0.01,24.99,0,37.49,0.01c3.69,0,5.54,1.82,5.34,5.6
	c-0.06,1.16,0.17,2.36-0.03,3.49c-1.65,9.12,1.21,15.03,10.94,17.16c2.71,0.6,4.4,1.11,6.43-1.14c2.9-3.21,6.17-6.07,9.23-9.14
	c2.49-2.5,4.92-2.45,7.38-0.02c8.99,8.91,17.97,17.84,26.97,26.74c2.73,2.7,2.39,5.16-0.27,7.7c-3.37,3.22-6.55,6.65-9.97,9.82
	c-1.94,1.8-2.51,3.28-1.37,6c4.11,9.77,3.96,9.83,14.53,9.83c2.83,0,5.67-0.08,8.5,0.05c3.18,0.14,4.91,1.67,4.42,5.67
	c-1.69,0-3.29,0-4.9,0c-18.66,0-37.32-0.06-55.98,0.06c-3.27,0.02-5.31-0.78-7.31-3.7c-15.72-22.95-49.54-23.01-65.38-0.13
	c-1.95,2.82-3.86,3.88-7.23,3.85c-18.66-0.15-37.32-0.07-55.98-0.07C-499.38,89.46-501.03,89.46-503.11,89.46z"/>
<path d="M-467.52,351.75c-27.15,0-54.31,0.01-81.46,0c-6.93,0-7.6-0.61-7.6-7.26c-0.02-42.15-0.02-84.3,0-126.45
	c0-6.58,0.88-7.41,7.58-7.41c54.31-0.01,108.62-0.01,162.93,0c6.74,0,7.57,0.8,7.58,7.39c0.02,42.15,0.02,84.3,0,126.44
	c0,6.74-0.59,7.27-7.55,7.28C-413.21,351.76-440.36,351.75-467.52,351.75z M-453.77,241.03c-0.88-0.9-2.28-3.32-3.38-3.2
	c-1.83,0.21-4.5,1.71-5.02,3.27c-2.41,7.25-4.21,14.7-6.22,22.08c-4.99,18.29-9.98,36.58-14.94,54.89c-1.17,4.34,0.45,7.8,3.37,6.88
	c1.98-0.62,4.11-3.24,4.71-5.38c6.93-24.65,13.58-49.38,20.31-74.1C-454.64,244.34-454.35,243.22-453.77,241.03z M-510.37,281.3
	c7.83-8.08,15.33-15.83,22.84-23.57c2.04-2.1,3.44-4.4,0.82-6.87c-2.59-2.44-4.85-0.94-6.87,1.14c-8.1,8.36-16.16,16.76-24.35,25.02
	c-2.99,3.01-2.91,5.61,0,8.54c5.85,5.9,11.61,11.9,17.41,17.86c2.67,2.74,5.12,5.78,8.15,8.02c1.26,0.93,4.48,0.88,5.56-0.1
	c0.96-0.87,0.6-3.75,0.09-5.54c-0.36-1.27-1.94-2.2-2.98-3.27C-496.52,295.53-503.34,288.53-510.37,281.3z M-424.7,281.18
	c-1.48,1.61-2.66,2.97-3.92,4.26c-6.37,6.57-12.76,13.11-19.14,19.67c-1.95,2-3.21,4.64-0.5,6.31c1.48,0.92,5.09,0.54,6.36-0.69
	c8.61-8.32,16.97-16.91,25.07-25.72c1.24-1.35,1.82-5.33,0.85-6.38c-8.77-9.55-17.87-18.8-27.14-27.88
	c-0.88-0.87-4.15-0.64-5.13,0.31c-0.95,0.91-0.72,3.49-0.34,5.18c0.25,1.12,1.67,1.99,2.6,2.94
	C-438.96,266.45-431.92,273.72-424.7,281.18z"/>
<path d="M-372.08,187.75c-58.66,0-117.32,0-175.97,0c-8.22,0-8.53-0.31-8.54-8.35c-0.01-9,0.1-18-0.04-27
	c-0.07-4.39,1.65-6.61,6.17-6.34c1.16,0.07,2.33,0,3.5,0c116.82,0,233.63,0,350.45,0c1.5,0,3,0.01,4.5,0.03
	c3.39,0.04,5.33,1.6,5.33,5.15c0,10.5,0.01,21-0.01,31.5c-0.01,3.56-1.99,5.03-5.42,5.01c-6.33-0.04-12.66,0-19,0
	C-264.76,187.75-318.42,187.75-372.08,187.75z M-281.54,164.17c-5.66,0-11.32,0-16.99,0c-14.65,0-29.31,0.01-43.96,0.01
	c-2.93,0-5.94,0.75-5.28,4.19c0.31,1.62,3.29,2.78,5.15,4c0.47,0.31,1.3,0.05,1.97,0.05c39.63,0,79.27,0,118.9-0.01
	c1.32,0,2.97,0.29,3.89-0.37c1.31-0.93,2.9-2.63,2.86-3.96c-0.04-1.28-1.78-2.9-3.16-3.63c-1.19-0.63-2.93-0.28-4.42-0.28
	C-242.23,164.16-261.89,164.17-281.54,164.17z M-476.19,160.67c0,4.27,0,8.42,0,12.58c4.36,0,8.28,0,12.44,0c0-4.3,0-8.35,0-12.58
	C-467.85,160.67-471.64,160.67-476.19,160.67z M-531.44,160.75c0,4.14,0,8.29,0,12.38c4.39,0,8.45,0,12.48,0c0-4.3,0-8.22,0-12.38
	C-523.16,160.75-527.1,160.75-531.44,160.75z M-491.13,160.85c-4.54,0-8.56,0-12.58,0c0,4.36,0,8.36,0,12.22c4.47,0,8.48,0,12.58,0
	C-491.13,168.86-491.13,165.08-491.13,160.85z"/>
<path d="M-270.1,257.83c-24.14,0-48.28,0.01-72.43-0.01c-6.82,0-7.53-0.71-7.54-7.36c-0.02-10.99-0.04-21.98,0.01-32.97
	c0.02-5.67,1.12-6.85,6.63-6.85c49.12-0.03,98.23-0.03,147.35,0c5.65,0,6.78,1.13,6.8,6.7c0.05,10.99,0.03,21.98,0.01,32.97
	c-0.01,6.77-0.72,7.52-7.41,7.52C-221.15,257.84-245.63,257.83-270.1,257.83z"/>
<path d="M-258.97,351.83c-20.97,0-41.94,0-62.91-0.01c-1.66,0-3.53,0.34-4.93-0.29c-1.42-0.64-3.41-2.41-3.29-3.49
	c0.16-1.54,1.79-3.2,3.22-4.22c0.9-0.64,2.58-0.24,3.91-0.24c42.94-0.01,85.87-0.01,128.81,0.01c1.48,0,3.3-0.28,4.37,0.45
	c1.29,0.89,2.61,2.68,2.65,4.12c0.03,1.11-1.7,2.67-3,3.29c-1.24,0.59-2.93,0.28-4.43,0.28c-21.47,0.01-42.94,0.01-64.41,0.01
	C-258.97,351.78-258.97,351.8-258.97,351.83z"/>
<path d="M-258.49,322.32c21.13,0,42.27,0,63.4,0c1.5,0,3.26-0.43,4.42,0.21c1.5,0.83,3.52,2.55,3.49,3.84
	c-0.03,1.36-2.05,2.91-3.52,3.91c-0.81,0.55-2.26,0.18-3.43,0.18c-43.1,0-86.2,0-129.31,0c-1,0-2.31,0.36-2.93-0.13
	c-1.5-1.2-3.37-2.66-3.69-4.3c-0.19-0.94,2.19-2.72,3.73-3.55c1.03-0.56,2.61-0.16,3.94-0.16
	C-301.09,322.32-279.79,322.32-258.49,322.32z"/>
<path d="M-219.02,309.16c-8.32,0-16.63,0.01-24.95,0c-2.97,0-6.09-0.22-6.11-4.13c-0.02-3.91,3.1-4.18,6.07-4.19
	c16.96-0.01,33.93-0.01,50.89,0c2.97,0,6.13,0.3,6.15,4.14c0.02,3.84-3.11,4.18-6.1,4.18
	C-201.72,309.17-210.37,309.16-219.02,309.16z"/>
<path d="M-218.7,287.68c-8.64,0-17.29-0.02-25.93,0.01c-2.95,0.01-5.91-0.72-5.25-4.16c0.31-1.6,3.28-3.78,5.08-3.81
	c17.45-0.29,34.91-0.17,52.37-0.18c2.98,0,5.57,0.78,5.46,4.27c-0.11,3.57-2.93,3.9-5.79,3.89
	C-201.41,287.66-210.05,287.68-218.7,287.68z"/>
</svg>
